<svg width="120" height="120" viewBox="0 0 120 120" fill="none" xmlns="http://www.w3.org/2000/svg">
<path d="M60 110C87.6142 110 110 87.6142 110 60C110 32.3858 87.6142 10 60 10C32.3858 10 10 32.3858 10 60C10 87.6142 32.3858 110 60 110Z" stroke="#D55453" stroke-width="2.5806" stroke-miterlimit="10"/>
<path d="M82.1001 84.5H38.2001C36.8001 84.5 35.6001 83.3 35.6001 81.9V38C35.6001 36.6 36.8001 35.4 38.2001 35.4H82.1001C83.5001 35.4 84.7001 36.6 84.7001 38V81.9C84.7001 83.3 83.5001 84.5 82.1001 84.5Z" stroke="#D55453" stroke-width="2.5806" stroke-miterlimit="10"/>
<path d="M51.9001 76.3H46.7001C46.7001 76.3 46.6001 76.2999 46.6001 76.1999V51.7999C46.6001 51.7999 46.6001 51.7 46.7001 51.7H51.9001C51.9001 51.7 52.0001 51.6999 52.0001 51.7999L51.9001 76.3Z" stroke="#D55453" stroke-width="2.5806" stroke-miterlimit="10"/>
<path d="M73.6 76.3H68.4C68.4 76.3 68.3 76.3 68.3 76.2V62.6C68.3 62.6 68.3 62.5 68.4 62.5H73.6C73.6 62.5 73.7 62.5 73.7 62.6L73.6 76.3Z" stroke="#D55453" stroke-width="2.5806" stroke-miterlimit="10"/>
<path d="M62.7 76.3H57.6C57.6 76.3 57.5 76.2999 57.5 76.1999V43.7999C57.5 43.7999 57.5 43.7 57.6 43.7H62.7C62.7 43.7 62.8 43.6999 62.8 43.7999L62.7 76.3ZM62.7 76.3C62.8 76.2 62.8 76.3 62.7 76.3Z" stroke="#D55453" stroke-width="2.5806" stroke-miterlimit="10"/>
</svg>
