<svg width="120" height="120" viewBox="0 0 120 120" fill="none" xmlns="http://www.w3.org/2000/svg">
<path d="M60 110C87.6142 110 110 87.6142 110 60C110 32.3858 87.6142 10 60 10C32.3858 10 10 32.3858 10 60C10 87.6142 32.3858 110 60 110Z" stroke="#D55453" stroke-width="2.5806" stroke-miterlimit="10"/>
<path d="M77.6001 68.5C78.0001 68.7 78.3001 68.9 78.7001 68.9" stroke="#D55453" stroke-width="2.5806" stroke-miterlimit="10"/>
<path d="M77.7001 39C78.0001 38.8 78.4001 38.7 78.7001 38.7" stroke="#D55453" stroke-width="2.5806" stroke-miterlimit="10"/>
<path d="M73.9 48.3C74.5 43.6 75.9 40 77.6 39" stroke="#D55453" stroke-width="2.5806" stroke-miterlimit="10"/>
<path d="M78.7001 38.7C81.5001 38.7 83.8001 45.4999 83.8001 53.7999C83.8001 62.0999 81.5001 68.9 78.7001 68.9" stroke="#D55453" stroke-width="2.5806" stroke-miterlimit="10"/>
<path d="M73.9 59.1C74.5 63.8 75.9 67.4 77.6 68.5" stroke="#D55453" stroke-width="2.5806" stroke-miterlimit="10"/>
<path d="M73.9001 59.0999C73.7001 57.3999 73.6001 55.6999 73.6001 53.7999C73.6001 51.8999 73.7001 50.0999 73.9001 48.3999" stroke="#D55453" stroke-width="2.5806" stroke-miterlimit="10"/>
<path d="M73.9 59.0999C76.7 58.8999 78.7 56.5999 78.7 53.6999C78.7 50.7999 76.7 48.4999 73.9 48.2999" stroke="#D55453" stroke-width="2.5806" stroke-miterlimit="10"/>
<path d="M77.7001 39C78.4001 38.8 78.7001 38.7 78.7001 38.7" stroke="#D55453" stroke-width="2.5806" stroke-miterlimit="10"/>
<path d="M77.7 39C73.2 40.4 54.7 45.8 40.5 46C39.8 46 39.1 46.3 38.6 46.8C37.6 47.8 36.3 49.2 36.3 53.1C36.3 57 37.4001 59.1 38.4001 60.2C38.9001 60.7 39.6 61 40.3 61C41.4 61 42.6 61.1 43.8 61.2" stroke="#D55453" stroke-width="2.5806" stroke-miterlimit="10"/>
<path d="M48.7001 61.7999C47.0001 61.5999 45.3001 61.3999 43.6001 61.2999" stroke="#D55453" stroke-width="2.5806" stroke-miterlimit="10"/>
<path d="M48.7001 61.7999C61.0001 63.3999 73.8001 67.2999 77.6001 68.4999" stroke="#D55453" stroke-width="2.5806" stroke-miterlimit="10"/>
<path d="M77.6001 68.5C78.3001 68.7 78.7001 68.9 78.7001 68.9" stroke="#D55453" stroke-width="2.5806" stroke-miterlimit="10"/>
<path d="M50.1 61.9999C46.7 54.1999 50.2 45.2999 50.2 45.2999" stroke="#D55453" stroke-width="2.5806" stroke-miterlimit="10"/>
<path d="M48.7001 61.7999L48.3 60.7" stroke="#D55453" stroke-width="2.5806" stroke-miterlimit="10"/>
<path d="M48.7001 61.7999L56.0001 78.9999C56.5001 80.0999 55.6001 81.3999 54.4001 81.3999H51.5001C49.8001 81.3999 48.3001 80.1999 47.9001 78.5999L43.6001 61.3999" stroke="#D55453" stroke-width="2.5806" stroke-miterlimit="10"/>
<path d="M43.5 61L43.6 61.3" stroke="#D55453" stroke-width="2.5806" stroke-miterlimit="10"/>
</svg>
