<svg width="120" height="120" viewBox="0 0 120 120" fill="none" xmlns="http://www.w3.org/2000/svg">
<path d="M60 110C87.6142 110 110 87.6142 110 60C110 32.3858 87.6142 10 60 10C32.3858 10 10 32.3858 10 60C10 87.6142 32.3858 110 60 110Z" stroke="#D55453" stroke-width="2.5806" stroke-miterlimit="10"/>
<path d="M57.3999 41.1C45.4999 41.1 35.8999 50.7 35.8999 62.6C35.8999 74.5 45.4999 84.1 57.3999 84.1C69.2999 84.1 78.8999 74.5 78.8999 62.6H57.3999V41.1Z" stroke="#D55453" stroke-width="2.5806" stroke-miterlimit="10"/>
<path d="M63.2 35.9V57.4H84.6999C84.7999 45.5 75.1 35.9 63.2 35.9Z" stroke="#D55453" stroke-width="2.5806" stroke-miterlimit="10"/>
</svg>
