<svg width="120" height="120" viewBox="0 0 120 120" fill="none" xmlns="http://www.w3.org/2000/svg">
<path d="M60 110C87.6142 110 110 87.6142 110 60C110 32.3858 87.6142 10 60 10C32.3858 10 10 32.3858 10 60C10 87.6142 32.3858 110 60 110Z" stroke="#D55453" stroke-width="2.5806" stroke-miterlimit="10"/>
<path d="M79 39.8V82C79 83.4 77.8 84.6 76.4 84.6H46.3C43.4 84.6 41.1 82.3 41.1 79.4M41.1 79.4C41.1 76.5 43.4 74.2 46.3 74.2H71.3C72.7 74.2 73.9 73 73.9 71.6V38C73.9 36.6 72.7 35.4 71.3 35.4H43.7C42.3 35.4 41.1 36.6 41.1 38V79.4Z" stroke="#D55453" stroke-width="2.5806" stroke-miterlimit="10" stroke-linecap="round"/>
<path d="M46.1 79.6H73.5" stroke="#D55453" stroke-width="2.581" stroke-miterlimit="10" stroke-linecap="round" stroke-linejoin="round"/>
</svg>
