<svg width="120" height="120" viewBox="0 0 120 120" fill="none" xmlns="http://www.w3.org/2000/svg">
<path d="M60 110C87.6142 110 110 87.6142 110 60C110 32.3858 87.6142 10 60 10C32.3858 10 10 32.3858 10 60C10 87.6142 32.3858 110 60 110Z" stroke="#D55453" stroke-width="2.5806" stroke-miterlimit="10"/>
<path d="M69.1001 46.8999H50.9001" stroke="#D55453" stroke-width="2.5806" stroke-miterlimit="10"/>
<path d="M69.1001 46.8999H81.8001C83.2001 46.8999 84.4001 48.0999 84.4001 49.4999V78.4999C84.4001 79.8999 83.2001 81.0999 81.8001 81.0999H38.2001C36.8001 81.0999 35.6001 79.8999 35.6001 78.4999V70.3999" stroke="#D55453" stroke-width="2.5806" stroke-miterlimit="10"/>
<path d="M50.9001 46.8999H38.2001C36.8001 46.8999 35.6001 48.0999 35.6001 49.4999V70.3999" stroke="#D55453" stroke-width="2.5806" stroke-miterlimit="10"/>
<path d="M69.1001 46.9V42.2999C69.1001 40.8999 67.9001 39.7 66.5001 39.7H53.5001C52.1001 39.7 50.9001 40.8999 50.9001 42.2999V46.9" stroke="#D55453" stroke-width="2.5806" stroke-miterlimit="10"/>
<path d="M48.4001 70.3999V67.9999C48.4001 67.8999 48.3001 67.7999 48.2001 67.7999H43.3001C43.2001 67.7999 43.1001 67.8999 43.1001 67.9999V70.3999" stroke="#D55453" stroke-width="2.5806" stroke-miterlimit="10"/>
<path d="M48.4001 70.3999V72.9999C48.4001 73.0999 48.3001 73.1999 48.2001 73.1999H43.3001C43.2001 73.1999 43.1001 73.0999 43.1001 72.9999V70.3999" stroke="#D55453" stroke-width="2.5806" stroke-miterlimit="10"/>
<path d="M71.5 70.3999V67.9999C71.5 67.8999 71.6 67.7999 71.7 67.7999H76.6C76.7 67.7999 76.8 67.8999 76.8 67.9999V70.3999" stroke="#D55453" stroke-width="2.5806" stroke-miterlimit="10"/>
<path d="M71.5 70.3999V72.9999C71.5 73.0999 71.6 73.1999 71.7 73.1999H76.6C76.7 73.1999 76.8 73.0999 76.8 72.9999V70.3999" stroke="#D55453" stroke-width="2.5806" stroke-miterlimit="10"/>
<path d="M43.1001 70.3999H35.6001" stroke="#D55453" stroke-width="2.5806" stroke-miterlimit="10"/>
<path d="M84.3001 70.3999H76.9001" stroke="#D55453" stroke-width="2.5806" stroke-miterlimit="10"/>
<path d="M71.5001 70.3999H48.4001" stroke="#D55453" stroke-width="2.5806" stroke-miterlimit="10"/>
</svg>
