<svg width="120" height="120" viewBox="0 0 120 120" fill="none" xmlns="http://www.w3.org/2000/svg">
<path d="M60 110C87.6142 110 110 87.6142 110 60C110 32.3858 87.6142 10 60 10C32.3858 10 10 32.3858 10 60C10 87.6142 32.3858 110 60 110Z" stroke="#D55453" stroke-width="2.5806" stroke-miterlimit="10"/>
<path d="M60 84.5C73.531 84.5 84.5 73.531 84.5 60C84.5 46.469 73.531 35.5 60 35.5C46.469 35.5 35.5 46.469 35.5 60C35.5 73.531 46.469 84.5 60 84.5Z" stroke="#D55453" stroke-width="2.5806" stroke-miterlimit="10"/>
<path d="M74.3001 61.9C74.5001 63.6 74.7001 65.5 72.5001 67.9C71.9001 68.6 71.6001 69.5 71.2001 70.4C70.4001 72.6 69.6001 74.8 66.2001 74.8C66.1001 74.7 65.8001 74.3 65.6001 72.9C65.4001 71.7 65.3001 70 65.1001 68.3C64.9001 65.7 64.7001 62.7 64.0001 60.3C63.2001 57.2 61.8001 55.3 59.8001 54.6C58.9001 54.3 58.0001 54.2 57.0001 54.2C56.3001 54.2 55.6001 54.3 55.1001 54.3C54.7001 54.4 54.2001 54.4 53.9001 54.4C53.3001 54.4 52.6001 54.4 51.8001 52.5C50.6001 49.7 51.5001 45.3 55.0001 42.9C56.9001 41.6 58.3001 41.1 59.5001 41.1C60.5001 41.1 61.5001 41.4 63.0001 42.2C64.7001 43.1 66.1001 43.2 67.1001 43.2C67.5001 43.2 67.8001 43.2 68.2001 43.2C68.5001 43.2 68.8001 43.2 69.0001 43.2C69.6001 43.2 70.0001 43.3 70.6001 43.6C71.6001 44.3 72.1001 45.8 72.7001 47.4C73.5001 49.8 74.5001 52.5 77.4001 53.5C77.8001 53.6 78.5001 53.9 79.0001 54.1C78.6001 54.5 77.9001 55.2 77.2001 55.8C76.8001 56.2 76.3001 56.6 75.7001 57.2C74.0001 58.6 74.2001 60.3 74.3001 61.9Z" stroke="#D55453" stroke-width="2.5806" stroke-miterlimit="10" stroke-linecap="round" stroke-linejoin="round"/>
<path d="M41.4001 61.2C41.0001 61 40 60.6 38 60.2C37.6 60.1 37.1 60 36.8 60C36.8 60.1 36.8 60.2 36.8 60.3C36.8 64.1 37.5001 67.8 38.7001 71.2C39.1001 69.9 39.4 68.4 39.1 67.2C38.7 65.5 39.8001 63.9 40.7001 62.6C40.8001 62.1 41.2001 61.5 41.4001 61.2Z" stroke="#D55453" stroke-width="2.581" stroke-miterlimit="10" stroke-linecap="round" stroke-linejoin="round"/>
</svg>
